<svg width="44px" height="40px" viewBox="0 0 44 40">
<path d="M 0.41 19.7C 0.41 19.7 4.4 17.55 4.4 17.55 4.4 17.55 21.85 26.96 21.85 26.96 21.85 26.96 39.3 17.55 39.3 17.55 39.3 17.55 43.29 19.7 43.29 19.7 43.29 19.7 21.85 31.25 21.85 31.25 21.85 31.25 0.41 19.7 0.41 19.7ZM 0.41 11.67C 0.41 11.67 21.85 0.11 21.85 0.11 21.85 0.11 43.29 11.67 43.29 11.67 43.29 11.67 21.85 23.23 21.85 23.23 21.85 23.23 0.41 11.67 0.41 11.67ZM 21.85 34.98C 21.85 34.98 39.3 25.57 39.3 25.57 39.3 25.57 43.29 27.72 43.29 27.72 43.29 27.72 21.85 39.28 21.85 39.28 21.85 39.28 0.41 27.72 0.41 27.72 0.41 27.72 4.4 25.57 4.4 25.57 4.4 25.57 21.85 34.98 21.85 34.98Z"/></svg>