<svg width="22px" height="22px" viewBox="0 0 22 22">
<path d="M 7.58 10.43C 7.58 10.43 12.35 5.66 12.35 5.66 12.64 5.37 13.11 5.37 13.4 5.66 13.68 5.95 13.68 6.42 13.4 6.7 13.4 6.7 9.14 10.96 9.14 10.96 9.14 10.96 13.4 15.21 13.4 15.21 13.68 15.5 13.68 15.96 13.4 16.25 13.11 16.54 12.64 16.54 12.35 16.25 12.35 16.25 7.58 11.48 7.58 11.48 7.44 11.33 7.37 11.15 7.37 10.96 7.37 10.77 7.44 10.58 7.58 10.43ZM 10.99 0.03C 17.05 0.03 21.97 4.94 21.97 11.01 21.97 17.08 17.05 21.99 10.99 21.99 4.92 21.99 0 17.08 0 11.01 0 4.94 4.92 0.03 10.99 0.03ZM 10.99 20.52C 16.23 20.52 20.5 16.25 20.5 11.01 20.5 5.77 16.23 1.5 10.99 1.5 5.74 1.5 1.47 5.77 1.47 11.01 1.47 16.25 5.74 20.52 10.99 20.52Z"/></svg>